<svg width="57" height="57" viewBox="0 0 57 57" fill="none" xmlns="http://www.w3.org/2000/svg">
<path d="M23.489 25.9809C23.9689 25.6333 24.2006 25.0597 24.2006 24.2709C24.2172 23.8958 24.1399 23.5262 23.9744 23.1897C23.8255 22.9194 23.6049 22.6933 23.3346 22.5333C23.0543 22.3634 22.7431 22.2509 22.4189 22.2024C22.0659 22.1362 21.7073 22.1031 21.3543 22.1086H17.4765V26.5049H21.6742C22.3969 26.5104 23.0091 26.3339 23.489 25.9809ZM24.1399 29.9524C23.5994 29.5387 22.8767 29.3346 21.9776 29.3346H17.4655V34.5197H21.8894C22.3031 34.5197 22.6837 34.4811 23.0533 34.4039C23.4029 34.3355 23.7362 34.2007 24.0351 34.0067C24.3164 33.8247 24.5426 33.5765 24.7136 33.2565C24.8791 32.9366 24.9618 32.5284 24.9618 32.0375C24.9618 31.0612 24.686 30.3716 24.1399 29.9524ZM28.5473 3.56909C14.9005 3.56909 3.8353 14.6343 3.8353 28.2811C3.8353 41.9278 14.9005 52.993 28.5473 52.993C42.194 52.993 53.2592 41.9278 53.2592 28.2811C53.2592 14.6343 42.194 3.56909 28.5473 3.56909ZM33.3187 19.3947H40.9529V21.2536H33.3187V19.3947ZM28.5473 34.7238C28.1902 35.4016 27.6803 35.9871 27.0579 36.4338C26.407 36.8861 25.6844 37.2171 24.9177 37.4101C24.1155 37.6251 23.288 37.7309 22.4575 37.7246H13.3229V18.9093H22.2038C23.1029 18.9093 23.9193 18.992 24.664 19.1465C25.4031 19.3009 26.0319 19.5657 26.5615 19.9242C27.0855 20.2828 27.4992 20.7627 27.7916 21.3584C28.0784 21.9486 28.2273 22.6878 28.2273 23.5648C28.2273 24.5136 28.0122 25.2969 27.582 25.9312C27.1462 26.5656 26.5174 27.0786 25.6624 27.4812C26.8263 27.8122 27.6812 28.4024 28.2439 29.2298C28.8175 30.0683 29.0989 31.0722 29.0989 32.2526C29.0989 33.2124 28.9168 34.0343 28.5473 34.7238ZM43.926 31.8113H34.0854C34.0854 32.8815 34.455 33.9074 35.0121 34.459C35.5747 35.0051 36.3801 35.2809 37.4336 35.2809C38.1949 35.2809 38.8402 35.0879 39.3918 34.7073C39.9379 34.3267 40.2689 33.924 40.3903 33.5048H43.6889C43.1593 35.143 42.354 36.3124 41.2618 37.0185C40.1806 37.7246 38.8568 38.0776 37.3178 38.0776C36.2422 38.0776 35.2769 37.9011 34.4108 37.5646C33.5779 37.2391 32.8277 36.7427 32.2099 36.1028C31.6008 35.4457 31.13 34.6729 30.8254 33.8302C30.4889 32.898 30.3234 31.9161 30.3345 30.9288C30.3345 29.9083 30.5055 28.9595 30.8364 28.077C31.4708 26.3615 32.7891 24.988 34.4715 24.2764C35.3706 23.9013 36.3359 23.7138 37.3123 23.7248C38.4707 23.7248 39.4746 23.9454 40.3461 24.3977C41.1852 24.8297 41.9136 25.4487 42.4753 26.207C43.0324 26.9627 43.4241 27.8232 43.6723 28.7941C43.9095 29.7483 43.9922 30.7523 43.926 31.8113ZM37.1964 26.538C36.6007 26.538 36.0988 26.6428 35.7126 26.8469C35.3265 27.051 35.0066 27.3047 34.7639 27.5971C34.5327 27.8793 34.3619 28.206 34.2619 28.5569C34.1736 28.8492 34.113 29.1471 34.0909 29.4505H40.1862C40.0979 28.4962 39.7669 27.7901 39.3257 27.2937C38.8623 26.8028 38.1176 26.538 37.1964 26.538Z" fill="#656579"/>
<path d="M55.0244 28.2811C55.0244 42.904 43.1702 54.7582 28.5473 54.7582C13.9244 54.7582 2.07015 42.904 2.07015 28.2811C2.07015 13.6582 13.9244 1.80396 28.5473 1.80396C43.1702 1.80396 55.0244 13.6582 55.0244 28.2811ZM8.47984 28.2811C8.47984 39.364 17.4643 48.3485 28.5473 48.3485C39.6302 48.3485 48.6147 39.364 48.6147 28.2811C48.6147 17.1981 39.6302 8.21365 28.5473 8.21365C17.4643 8.21365 8.47984 17.1981 8.47984 28.2811Z" fill="#656579"/>
</svg>
