<svg width="57" height="57" viewBox="0 0 57 57" fill="none" xmlns="http://www.w3.org/2000/svg">
<path d="M28.2916 20.9282C24.2428 20.9282 20.9387 24.2323 20.9387 28.2811C20.9387 32.3299 24.2428 35.634 28.2916 35.634C32.3404 35.634 35.6445 32.3299 35.6445 28.2811C35.6445 24.2323 32.3404 20.9282 28.2916 20.9282ZM50.3448 28.2811C50.3448 25.2362 50.3724 22.2189 50.2014 19.1796C50.0304 15.6493 49.225 12.5162 46.6435 9.93464C44.0565 7.34761 40.9289 6.54778 37.3986 6.37678C34.3537 6.20578 31.3364 6.23336 28.2971 6.23336C25.2522 6.23336 22.2349 6.20578 19.1956 6.37678C15.6653 6.54778 12.5322 7.35312 9.95066 9.93464C7.36362 12.5217 6.56379 15.6493 6.39279 19.1796C6.2218 22.2244 6.24938 25.2417 6.24938 28.2811C6.24938 31.3204 6.2218 34.3432 6.39279 37.3826C6.56379 40.9129 7.36914 44.046 9.95066 46.6275C12.5377 49.2145 15.6653 50.0144 19.1956 50.1854C22.2404 50.3564 25.2577 50.3288 28.2971 50.3288C31.342 50.3288 34.3592 50.3564 37.3986 50.1854C40.9289 50.0144 44.062 49.209 46.6435 46.6275C49.2306 44.0405 50.0304 40.9129 50.2014 37.3826C50.3779 34.3432 50.3448 31.3259 50.3448 28.2811ZM28.2916 39.5945C22.0308 39.5945 16.9781 34.5418 16.9781 28.2811C16.9781 22.0203 22.0308 16.9676 28.2916 16.9676C34.5523 16.9676 39.605 22.0203 39.605 28.2811C39.605 34.5418 34.5523 39.5945 28.2916 39.5945ZM40.0684 19.1465C38.6066 19.1465 37.4262 17.966 37.4262 16.5043C37.4262 15.0425 38.6066 13.8621 40.0684 13.8621C41.5301 13.8621 42.7106 15.0425 42.7106 16.5043C42.711 16.8514 42.643 17.1951 42.5103 17.5159C42.3777 17.8367 42.1831 18.1281 41.9377 18.3736C41.6922 18.619 41.4008 18.8136 41.08 18.9462C40.7592 19.0789 40.4155 19.1469 40.0684 19.1465Z" fill="#656579"/>
<path d="M54.7684 28.2811C54.7684 42.904 42.9142 54.7582 28.2913 54.7582C13.6684 54.7582 1.8142 42.904 1.8142 28.2811C1.8142 13.6582 13.6684 1.80396 28.2913 1.80396C42.9142 1.80396 54.7684 13.6582 54.7684 28.2811ZM8.22389 28.2811C8.22389 39.364 17.2084 48.3485 28.2913 48.3485C39.3742 48.3485 48.3587 39.364 48.3587 28.2811C48.3587 17.1981 39.3742 8.21365 28.2913 8.21365C17.2084 8.21365 8.22389 17.1981 8.22389 28.2811Z" fill="#656579"/>
</svg>
