<svg width="58" height="57" viewBox="0 0 58 57" fill="none" xmlns="http://www.w3.org/2000/svg">
<path d="M29.0365 1.1685C14.0624 1.1685 1.9239 13.307 1.9239 28.2811C1.9239 43.2551 14.0624 55.3936 29.0365 55.3936C44.0105 55.3936 56.149 43.2551 56.149 28.2811C56.149 13.307 44.0105 1.1685 29.0365 1.1685ZM22.3995 39.5187H16.9092V21.8503H22.3995V39.5187ZM19.6205 19.6813C17.8864 19.6813 16.7652 18.4528 16.7652 16.9333C16.7652 15.3828 17.9203 14.191 19.6911 14.191C21.4619 14.191 22.5464 15.3828 22.5803 16.9333C22.5803 18.4528 21.4619 19.6813 19.6205 19.6813ZM42.4515 39.5187H36.9612V29.7271C36.9612 27.4479 36.1648 25.9002 34.1794 25.9002C32.6628 25.9002 31.7618 26.948 31.3636 27.9563C31.2168 28.315 31.18 28.8233 31.18 29.3288V39.5158H25.6869V27.4846C25.6869 25.2789 25.6163 23.4347 25.5429 21.8475H30.313L30.5644 24.3017H30.6745C31.3975 23.1494 33.1683 21.4493 36.1309 21.4493C39.7431 21.4493 42.4515 23.8696 42.4515 29.0718V39.5187Z" fill="#656579"/>
</svg>
