<svg width="58" height="57" viewBox="0 0 58 57" fill="none" xmlns="http://www.w3.org/2000/svg">
<path d="M28.7777 3.56908C15.131 3.56908 4.06573 14.6343 4.06573 28.281C4.06573 41.9278 15.131 52.993 28.7777 52.993C42.4244 52.993 53.4897 41.9278 53.4897 28.281C53.4897 14.6343 42.4244 3.56908 28.7777 3.56908ZM40.6538 22.1968C40.6703 22.4561 40.6703 22.7264 40.6703 22.9911C40.6703 31.0887 34.5034 40.4164 23.2341 40.4164C19.7589 40.4164 16.5376 39.4069 13.8237 37.6694C14.3201 37.7245 14.7945 37.7466 15.302 37.7466C18.1703 37.7466 20.807 36.7758 22.9086 35.132C20.2168 35.0768 17.9552 33.3117 17.1829 30.8846C18.1262 31.0225 18.9757 31.0225 19.9465 30.7743C18.5604 30.4927 17.3146 29.7399 16.4207 28.6439C15.5268 27.5479 15.0399 26.1761 15.0427 24.7618V24.6846C15.8536 25.1424 16.8078 25.4237 17.8063 25.4623C16.9669 24.903 16.2786 24.1452 15.8023 23.2561C15.326 22.367 15.0765 21.3741 15.0758 20.3655C15.0758 19.2237 15.3737 18.1811 15.9087 17.2765C17.4472 19.1704 19.3669 20.7193 21.5432 21.8226C23.7195 22.926 26.1036 23.559 28.5405 23.6806C27.6745 19.516 30.7855 16.1457 34.5254 16.1457C36.2906 16.1457 37.8792 16.8849 38.999 18.0763C40.3835 17.8171 41.7074 17.2986 42.8878 16.6035C42.43 18.0212 41.4702 19.2181 40.196 19.9738C41.4316 19.8415 42.623 19.4995 43.7262 19.0196C42.8933 20.2441 41.8508 21.3308 40.6538 22.1968V22.1968Z" fill="#656579"/>
<path d="M55.2548 28.281C55.2548 42.9039 43.4006 54.7582 28.7777 54.7582C14.1548 54.7582 2.30058 42.9039 2.30058 28.281C2.30058 13.6581 14.1548 1.80394 28.7777 1.80394C43.4006 1.80394 55.2548 13.6581 55.2548 28.281ZM8.71027 28.281C8.71027 39.364 17.6948 48.3485 28.7777 48.3485C39.8606 48.3485 48.8451 39.364 48.8451 28.281C48.8451 17.1981 39.8606 8.21363 28.7777 8.21363C17.6948 8.21363 8.71027 17.1981 8.71027 28.281Z" fill="#656579"/>
</svg>
